<svg id="svg" version="1.1" xmlns="http://www.w3.org/2000/svg" xmlns:xlink="http://www.w3.org/1999/xlink" width="400" height="400" viewBox="0, 0, 400,400"><g id="svgg"><path id="path0" d="M18.562 0.843 C 18.143 1.306,17.080 2.043,16.200 2.481 C 14.124 3.513,3.790 13.722,2.717 15.800 C 2.262 16.680,1.466 17.907,0.948 18.528 L 0.005 19.655 0.001 200.164 L -0.003 380.674 0.842 381.437 C 1.306 381.857,2.101 383.010,2.608 384.000 C 3.790 386.309,13.762 396.261,16.068 397.434 C 17.021 397.918,18.143 398.694,18.562 399.157 L 19.324 400.000 199.904 400.000 L 380.485 400.000 381.942 398.853 C 382.744 398.223,383.843 397.568,384.385 397.399 C 386.078 396.871,396.219 386.578,397.376 384.213 C 397.937 383.066,398.758 381.800,399.199 381.401 C 400.000 380.676,400.002 380.355,399.999 200.088 L 399.997 19.502 398.842 18.187 C 397.939 17.158,397.574 16.973,397.163 17.336 C 396.733 17.717,396.730 17.679,397.144 17.129 C 397.556 16.583,397.541 16.247,397.061 15.329 C 396.130 13.543,385.819 3.526,383.918 2.559 C 382.973 2.079,381.857 1.306,381.438 0.843 L 380.676 -0.000 200.000 -0.000 L 19.324 0.000 18.562 0.843 M387.000 6.000 C 387.859 6.880,388.472 7.600,388.362 7.600 C 388.252 7.600,387.459 6.880,386.600 6.000 C 385.741 5.120,385.128 4.400,385.238 4.400 C 385.348 4.400,386.141 5.120,387.000 6.000 M9.200 10.114 C 9.200 10.176,8.165 11.211,6.900 12.414 L 4.600 14.600 6.786 12.300 C 8.818 10.163,9.200 9.817,9.200 10.114 M114.054 75.692 C 117.211 77.256,119.212 79.059,121.572 82.464 C 123.443 85.164,124.929 86.164,127.954 86.759 C 144.810 90.075,171.170 102.626,192.957 117.708 C 202.429 124.265,201.061 124.316,211.612 117.006 C 215.895 114.039,220.570 110.956,222.000 110.155 C 223.430 109.355,226.760 107.426,229.400 105.869 C 265.050 84.846,297.400 79.216,313.261 91.275 C 334.871 107.703,325.140 152.710,288.944 203.741 C 286.235 207.561,286.254 208.876,289.079 212.865 C 322.830 260.523,333.433 304.389,315.500 322.165 C 306.248 331.335,289.134 333.290,269.742 327.391 C 265.537 326.112,264.106 326.128,262.156 327.475 C 261.300 328.066,259.780 329.111,258.777 329.796 C 247.997 337.164,234.480 329.707,232.995 315.574 C 232.679 312.565,231.665 311.047,229.114 309.765 C 226.874 308.638,222.873 306.116,210.660 298.130 C 201.255 291.981,201.818 292.052,195.786 296.259 C 107.483 357.851,52.323 332.785,92.771 249.447 C 99.275 236.045,104.724 226.910,114.827 212.466 C 116.235 210.454,116.600 209.588,116.600 208.266 C 116.600 206.497,116.855 206.938,110.316 197.400 C 88.993 166.292,76.663 133.286,78.959 113.461 C 79.837 105.890,81.894 100.685,86.291 94.913 C 88.062 92.589,88.681 91.349,89.469 88.554 C 92.943 76.218,103.727 70.577,114.054 75.692 M279.915 97.820 C 268.636 99.897,251.403 106.571,239.937 113.304 C 237.882 114.511,234.940 116.134,233.400 116.911 C 230.388 118.430,215.585 127.940,214.100 129.309 C 211.933 131.308,212.557 132.110,222.600 140.244 C 235.689 150.845,259.367 174.981,272.721 191.334 C 277.213 196.835,278.191 197.606,279.771 196.886 C 282.076 195.836,294.071 175.715,302.119 159.400 C 306.062 151.406,310.801 137.554,312.021 130.457 C 316.682 103.327,306.457 92.933,279.915 97.820 M123.800 98.372 C 123.360 98.554,121.860 99.986,120.466 101.555 C 114.133 108.685,106.622 110.384,98.677 106.484 C 94.699 104.531,94.428 104.492,93.276 105.719 C 88.519 110.783,89.776 130.703,95.789 145.533 C 96.785 147.990,98.390 151.935,99.356 154.300 C 103.945 165.540,116.932 188.703,122.231 195.100 C 124.748 198.138,126.130 197.275,133.608 188.000 C 144.646 174.311,167.127 151.816,182.517 139.062 C 189.914 132.932,190.833 131.868,190.109 130.280 C 188.506 126.762,159.496 110.239,143.730 103.865 C 135.047 100.354,125.424 97.702,123.800 98.372 M198.760 140.459 C 197.792 141.152,195.740 142.823,194.200 144.174 C 192.660 145.525,189.480 148.197,187.132 150.111 C 175.758 159.389,153.358 181.669,144.141 192.873 C 143.293 193.904,140.853 196.808,138.719 199.328 C 131.301 208.083,131.241 208.617,136.946 215.095 C 137.869 216.143,139.424 217.990,140.403 219.200 C 152.806 234.542,175.877 257.531,192.787 271.396 C 201.993 278.945,201.736 278.898,207.627 274.098 C 229.917 255.939,251.977 233.543,269.445 211.337 C 272.193 207.844,272.009 207.528,257.254 190.362 C 245.340 176.501,226.205 157.969,210.652 145.229 C 202.426 138.491,201.840 138.256,198.760 140.459 M207.200 175.363 C 233.273 180.016,243.985 211.858,225.832 230.746 C 208.388 248.896,179.842 242.945,170.660 219.244 L 169.015 215.000 169.008 208.200 C 168.984 187.302,187.052 171.768,207.200 175.363 M123.542 219.608 C 123.180 219.820,121.101 222.649,118.921 225.896 C 104.706 247.073,94.764 268.230,91.336 284.600 C 88.178 299.682,90.323 311.106,97.274 316.223 C 105.241 322.088,122.937 321.130,141.844 313.809 C 159.516 306.967,190.800 288.783,190.800 285.354 C 190.800 283.699,190.304 283.157,184.048 277.986 C 174.762 270.312,173.633 269.323,165.867 262.066 C 155.205 252.103,142.252 238.332,131.697 225.738 C 126.299 219.297,125.327 218.566,123.542 219.608 M277.057 220.026 C 276.479 220.481,273.861 223.419,271.238 226.554 C 258.502 241.783,242.213 258.508,228.798 270.130 C 226.049 272.512,222.720 275.403,221.400 276.555 C 220.080 277.707,217.781 279.603,216.291 280.768 C 210.784 285.076,211.020 285.655,221.000 292.311 C 235.328 301.867,237.761 302.836,242.354 300.820 C 252.809 296.231,262.526 300.746,266.173 311.888 C 267.206 315.046,268.484 316.156,272.491 317.378 C 283.627 320.775,297.394 320.945,303.672 317.763 C 322.185 308.382,314.460 270.936,284.685 225.727 C 280.254 218.999,279.285 218.274,277.057 220.026 " stroke="none" fill="#254972" fill-rule="evenodd"></path><path id="path1" d="M102.892 76.596 C 96.633 78.352,93.377 82.124,91.445 89.857 C 90.904 92.026,90.195 94.802,89.872 96.026 C 88.895 99.714,89.407 100.796,92.400 101.377 C 93.170 101.526,95.807 102.650,98.261 103.875 C 106.998 108.235,113.609 106.875,119.458 99.515 C 120.733 97.912,122.204 96.258,122.727 95.840 C 126.240 93.034,126.404 91.696,123.612 88.613 C 122.518 87.405,120.888 85.253,119.990 83.831 C 116.102 77.675,109.302 74.798,102.892 76.596 M197.416 177.219 C 176.990 180.421,165.251 201.226,173.134 220.254 C 184.410 247.472,223.231 245.046,231.838 216.585 C 238.140 195.748,218.981 173.838,197.416 177.219 M246.106 301.417 C 244.954 301.727,243.147 302.419,242.090 302.955 C 241.033 303.490,239.109 304.124,237.815 304.363 C 233.385 305.182,232.732 306.247,233.991 310.599 C 234.436 312.138,234.800 314.215,234.800 315.215 C 234.800 328.377,249.505 335.358,259.600 326.988 C 260.810 325.985,262.860 324.594,264.156 323.896 C 267.707 321.986,268.069 320.805,266.260 317.044 C 265.499 315.462,264.661 313.368,264.397 312.390 C 262.137 303.996,254.203 299.236,246.106 301.417 " stroke="none" fill="#88a9cf" fill-rule="evenodd"></path><path id="path2" d="M386.600 6.000 C 387.459 6.880,388.252 7.600,388.362 7.600 C 388.472 7.600,387.859 6.880,387.000 6.000 C 386.141 5.120,385.348 4.400,385.238 4.400 C 385.128 4.400,385.741 5.120,386.600 6.000 M6.786 12.300 L 4.600 14.600 6.900 12.414 C 9.037 10.382,9.383 10.000,9.086 10.000 C 9.024 10.000,7.989 11.035,6.786 12.300 M101.142 74.904 C 94.881 77.092,91.624 80.900,89.469 88.554 C 88.681 91.349,88.062 92.589,86.291 94.913 C 81.894 100.685,79.837 105.890,78.959 113.461 C 76.663 133.286,88.993 166.292,110.316 197.400 C 116.855 206.938,116.600 206.497,116.600 208.266 C 116.600 209.588,116.235 210.454,114.827 212.466 C 104.724 226.910,99.275 236.045,92.771 249.447 C 60.794 315.333,87.841 348.282,151.600 321.112 C 165.322 315.265,181.935 305.921,195.786 296.259 C 201.818 292.052,201.255 291.981,210.660 298.130 C 222.873 306.116,226.874 308.638,229.114 309.765 C 231.665 311.047,232.679 312.565,232.995 315.574 C 234.480 329.707,247.997 337.164,258.777 329.796 C 259.780 329.111,261.300 328.066,262.156 327.475 C 264.106 326.128,265.537 326.112,269.742 327.391 C 289.134 333.290,306.248 331.335,315.500 322.165 C 333.433 304.389,322.830 260.523,289.079 212.865 C 286.254 208.876,286.235 207.561,288.944 203.741 C 325.140 152.710,334.871 107.703,313.261 91.275 C 297.400 79.216,265.050 84.846,229.400 105.869 C 226.760 107.426,223.430 109.355,222.000 110.155 C 220.570 110.956,215.895 114.039,211.612 117.006 C 201.061 124.316,202.429 124.265,192.957 117.708 C 171.170 102.626,144.810 90.075,127.954 86.759 C 124.929 86.164,123.443 85.164,121.572 82.464 C 116.473 75.105,108.748 72.246,101.142 74.904 M112.879 77.485 C 116.174 79.027,117.965 80.625,119.990 83.831 C 120.888 85.253,122.518 87.405,123.612 88.613 C 126.404 91.696,126.240 93.034,122.727 95.840 C 122.204 96.258,120.733 97.912,119.458 99.515 C 113.609 106.875,106.998 108.235,98.261 103.875 C 95.807 102.650,93.170 101.526,92.400 101.377 C 89.407 100.796,88.895 99.714,89.872 96.026 C 90.195 94.802,90.904 92.026,91.445 89.857 C 94.311 78.384,103.485 73.089,112.879 77.485 M298.444 97.208 C 315.013 100.351,317.742 120.218,305.805 150.800 C 301.554 161.693,292.415 178.708,283.718 191.922 C 279.152 198.860,278.853 198.844,272.721 191.334 C 259.367 174.981,235.689 150.845,222.600 140.244 C 212.557 132.110,211.933 131.308,214.100 129.309 C 215.585 127.940,230.388 118.430,233.400 116.911 C 234.940 116.134,237.882 114.511,239.937 113.304 C 259.787 101.648,285.115 94.680,298.444 97.208 M132.135 99.859 C 145.741 103.552,171.066 116.200,186.039 126.780 C 192.114 131.073,192.100 131.120,182.517 139.062 C 167.127 151.816,144.646 174.311,133.608 188.000 C 126.130 197.275,124.748 198.138,122.231 195.100 C 116.932 188.703,103.945 165.540,99.356 154.300 C 98.390 151.935,96.785 147.990,95.789 145.533 C 89.776 130.703,88.519 110.783,93.276 105.719 C 94.428 104.492,94.699 104.531,98.677 106.484 C 106.622 110.384,114.133 108.685,120.466 101.555 C 124.109 97.454,123.565 97.533,132.135 99.859 M203.595 139.797 C 210.772 143.509,243.452 174.304,257.254 190.362 C 272.009 207.528,272.193 207.844,269.445 211.337 C 250.343 235.620,209.313 276.167,202.560 277.434 C 197.725 278.341,158.522 241.613,140.403 219.200 C 139.424 217.990,137.869 216.143,136.946 215.095 C 131.241 208.617,131.301 208.083,138.719 199.328 C 140.853 196.808,143.293 193.904,144.141 192.873 C 153.358 181.669,175.758 159.389,187.132 150.111 C 189.480 148.197,192.660 145.525,194.200 144.174 C 199.884 139.188,201.217 138.568,203.595 139.797 M197.200 175.237 C 180.776 177.360,168.989 191.142,169.008 208.200 L 169.015 215.000 170.660 219.244 C 179.842 242.945,208.388 248.896,225.832 230.746 C 247.261 208.449,228.072 171.248,197.200 175.237 M209.000 177.801 C 226.130 182.200,236.772 200.272,231.838 216.585 C 222.382 247.854,179.101 246.577,171.315 214.800 C 166.002 193.116,187.282 172.223,209.000 177.801 M126.557 220.038 C 127.143 220.499,129.456 223.064,131.697 225.738 C 142.252 238.332,155.205 252.103,165.867 262.066 C 173.633 269.323,174.762 270.312,184.048 277.986 C 193.205 285.555,193.223 285.346,182.810 292.204 C 162.409 305.639,139.060 316.283,123.820 319.096 C 117.835 320.200,105.788 320.072,102.299 318.867 C 91.352 315.086,87.484 302.995,91.336 284.600 C 94.764 268.230,104.706 247.073,118.921 225.896 C 123.730 218.732,124.321 218.279,126.557 220.038 M280.317 219.827 C 282.414 221.295,293.212 238.939,299.641 251.400 C 314.668 280.529,317.929 305.096,308.023 314.546 C 303.182 319.163,299.476 320.208,289.200 319.853 C 274.494 319.344,267.863 317.050,266.173 311.888 C 262.526 300.746,252.809 296.231,242.354 300.820 C 237.761 302.836,235.328 301.867,221.000 292.311 C 211.020 285.655,210.784 285.076,216.291 280.768 C 217.781 279.603,220.080 277.707,221.400 276.555 C 222.720 275.403,226.049 272.512,228.798 270.130 C 242.213 258.508,258.502 241.783,271.238 226.554 C 277.574 218.979,278.318 218.427,280.317 219.827 M253.400 301.344 C 259.088 302.863,262.849 306.641,264.397 312.390 C 264.661 313.368,265.499 315.462,266.260 317.044 C 268.069 320.805,267.707 321.986,264.156 323.896 C 262.860 324.594,260.810 325.985,259.600 326.988 C 249.505 335.358,234.800 328.377,234.800 315.215 C 234.800 314.215,234.436 312.138,233.991 310.599 C 232.732 306.247,233.385 305.182,237.815 304.363 C 239.109 304.124,241.033 303.490,242.090 302.955 C 246.088 300.928,249.843 300.394,253.400 301.344 " stroke="none" fill="#7494be" fill-rule="evenodd"></path></g></svg>